<?xml version="1.0" standalone="no"?>
<!DOCTYPE svg PUBLIC "-//W3C//DTD SVG 20010904//EN"
 "http://www.w3.org/TR/2001/REC-SVG-20010904/DTD/svg10.dtd">
<svg version="1.0" xmlns="http://www.w3.org/2000/svg"
 width="16.000000pt" height="16.000000pt" viewBox="0 0 16.000000 16.000000"
 preserveAspectRatio="xMidYMid meet">
<metadata>
Created by potrace 1.11, written by Peter Selinger 2001-2013
</metadata>
<g transform="translate(0.000000,16.000000) scale(0.003125,-0.003125)"
fill="#000000" stroke="none">
<path d="M0 2560 l0 -2560 2560 0 2560 0 0 2560 0 2560 -2560 0 -2560 0 0
-2560z m3285 1371 c321 -81 559 -297 688 -624 45 -115 81 -270 96 -409 14
-125 14 -471 0 -596 -64 -589 -393 -977 -885 -1043 -118 -15 -315 -6 -422 20
-282 70 -513 257 -648 524 -68 133 -126 340 -139 492 -3 39 -8 85 -11 103 l-5
32 -184 0 -185 0 0 -410 0 -410 90 0 90 0 0 -160 0 -160 -350 0 -350 0 0 160
0 160 85 0 85 0 0 975 0 975 -150 0 -150 0 120 180 120 180 205 0 205 0 0
-605 0 -605 184 0 184 0 6 88 c19 245 64 427 149 597 147 295 399 492 706 550
109 21 359 13 466 -14z"/>
<path d="M2925 3674 c-320 -52 -510 -270 -592 -679 -26 -130 -26 -636 0 -774
39 -208 114 -372 224 -492 74 -80 155 -132 257 -166 70 -23 98 -26 206 -27
203 0 338 51 460 175 103 104 159 213 205 393 39 154 48 272 42 569 -5 300
-17 384 -78 552 -79 218 -245 379 -444 430 -62 16 -227 27 -280 19z"/>
</g>
</svg>
